#!OML:ASF C:\ViconDB\ViconDB\414\Spring2016\041811\Spring2016.ASF
:FULLY-SPECIFIED
:DEGREES
271
root 10.9597 17.6801 -9.72004 -178.257 -5.1677 -177.362
lowerback 1.29735 1.94613 -1.80294
upperback 0.460873 2.56138 -0.285196
thorax -0.320692 1.2761 0.676009
lowerneck -10.5891 4.13665 -3.51176
upperneck 27.0779 0.980419 13.4181
head 10.2095 0.850723 5.41098
rclavicle 3.67255e-014 7.95139e-015
rhumerus -95.4528 37.6571 -125.848
rradius 90.0327
rwrist 28.6097
rhand -45.6047 -2.09722
rfingers 7.12502
rthumb -18.3655 -31.2502
lclavicle 3.67255e-014 7.95139e-015
lhumerus -81.4659 -44.8091 114.105
lradius 81.8411
lwrist -27.4258
lhand -39.3514 -3.28784
lfingers 7.12502
lthumb -12.3425 26.3279
rfemur 226.356 212.847 -169.853
rtibia -56.0583
rfoot 63.1142 -102.246
rtoes 24.0001
lfemur -27.5564 -12.9823 -22.0346
ltibia 41.3856
lfoot -14.336 -6.27352
ltoes -4.41098
272
root 10.9161 17.7333 -9.85635 -178.291 -5.08595 -177.997
lowerback 1.34672 1.80007 -1.65636
upperback 0.488065 2.36581 -0.402973
thorax -0.304705 1.17748 0.476308
lowerneck -10.6398 4.26552 -3.91491
upperneck 27.2659 1.30093 13.2509
head 10.2443 0.947336 5.46573
rclavicle -1.52319e-014 1.90833e-014
rhumerus -94.9943 37.5727 -125.683
rradius 90.0378
rwrist 28.6025
rhand -45.4048 -1.65329
rfingers 7.12502
rthumb -18.1732 -30.8243
lclavicle -1.52319e-014 1.90833e-014
lhumerus -82.1056 -45.3179 114.5
lradius 81.6258
lwrist -27.6195
lhand -39.7515 -2.87146
lfingers 7.12502
lthumb -12.7282 26.7206
rfemur 226.427 211.62 -170.838
rtibia -58.0844
rfoot 63.6387 -102.787
rtoes 21.4264
lfemur -26.0756 -12.5434 -22.9929
ltibia 39.9528
lfoot -14.1373 -6.51409
ltoes -4.14094
273
root 10.874 17.7925 -10.0012 -178.378 -5.01277 -178.299
lowerback 1.28408 1.64401 -1.29943
upperback 0.554221 2.1649 -0.378449
thorax -0.185547 1.07658 0.308964
lowerneck -10.6894 4.37692 -4.12941
upperneck 27.4993 1.63109 12.8014
head 10.3039 1.03712 5.38665
rclavicle 3.4017e-014 -2.78299e-015
rhumerus -94.5171 37.4647 -125.487
rradius 90.0482
rwrist 28.9804
rhand -45.3 -1.72881
rfingers 7.12502
rthumb -18.0724 -30.9092
lclavicle 3.4017e-014 -2.78299e-015
lhumerus -82.7223 -45.6483 114.912
lradius 81.493
lwrist -27.4331
lhand -40.0808 -2.63644
lfingers 7.12502
lthumb -13.0457 26.9356
rfemur 226.152 210.443 -171.38
rtibia -59.7872
rfoot 62.7288 -103.357
rtoes 18.8532
lfemur -24.4945 -12.0585 -23.5847
ltibia 38.4569
lfoot -14.0152 -6.88545
ltoes -4.33067
274
root 10.8248 17.8535 -10.1455 -178.299 -4.98606 -178.608
lowerback 1.04877 1.4876 -0.829147
upperback 0.61083 1.96663 -0.357162
thorax 0.0221478 0.977872 0.0788517
lowerneck -10.8602 4.45058 -4.48309
upperneck 27.7213 1.92283 12.4593
head 10.3838 1.11099 5.37178
rclavicle 2.45748e-014 -1.74931e-014
rhumerus -94.1432 37.4083 -125.345
rradius 89.9307
rwrist 30.279
rhand -45.6362 -3.58095
rfingers 7.12502
rthumb -18.3958 -32.7311
lclavicle 2.45748e-014 -1.74931e-014
lhumerus -83.1885 -46.0348 115.401
lradius 81.3107
lwrist -27.0034
lhand -40.1932 -2.38462
lfingers 7.12502
lthumb -13.154 27.1805
rfemur 225.392 209.574 -171.793
rtibia -61.1469
rfoot 61.2014 -103.534
rtoes 16.1334
lfemur -23.1325 -11.627 -24.1483
ltibia 36.9378
lfoot -13.8106 -7.23321
ltoes -4.23158
275
root 10.7906 17.8958 -10.2855 -178.329 -4.93661 -179.588
lowerback 1.21147 1.38053 -1.20115
upperback 0.524586 1.81334 -0.598682
thorax -0.159781 0.900342 0.0358554
lowerneck -10.7563 4.53642 -4.55601
upperneck 27.92 2.1109 12.1669
head 10.4189 1.14839 5.30221
rclavicle -4.88265e-014 9.54166e-015
rhumerus -93.7732 37.0971 -125.296
rradius 89.8127
rwrist 31.2455
rhand -45.9417 -3.96684
rfingers 7.12502
rthumb -18.6896 -33.089
lclavicle -4.88265e-014 9.54166e-015
lhumerus -84.0633 -46.3305 115.97
lradius 81.15
lwrist -26.6582
lhand -40.29 -2.38722
lfingers 7.12502
lthumb -13.2473 27.1718
rfemur 224.602 208.71 -172.891
rtibia -62.2952
rfoot 58.5494 -103.5
rtoes 11.8805
lfemur -21.6054 -11.2923 -25.4265
ltibia 35.4157
lfoot -13.6457 -7.50643
ltoes -4.2738
276
root 10.7469 17.9576 -10.4317 -178.188 -4.90726 -179.732
lowerback 0.995812 1.21399 -0.674279
upperback 0.460369 1.60287 -0.561326
thorax -0.0893271 0.797313 -0.213428
lowerneck -10.8163 4.66753 -4.58298
upperneck 28.1557 2.44945 11.6308
head 10.4927 1.24485 5.15932
rclavicle -5.70264e-015 1.68967e-014
rhumerus -93.38 36.9396 -125.102
rradius 89.8851
rwrist 31.5636
rhand -46.0867 -3.91532
rfingers 7.12502
rthumb -18.829 -33.024
lclavicle -5.70264e-015 1.68967e-014
lhumerus -84.4873 -46.3539 116.248
lradius 80.9886
lwrist -26.5717
lhand -40.5473 -2.2171
lfingers 7.12502
lthumb -13.4953 27.3256
rfemur 223.06 208.012 -172.795
rtibia -62.937
rfoot 55.8806 -103.648
rtoes 9.44633
lfemur -20.3343 -10.9307 -25.7476
ltibia 33.9507
lfoot -13.3861 -7.83648
ltoes -5.0222
277
root 10.706 17.9949 -10.5746 -178.18 -4.9191 -180.21
lowerback 0.954178 1.01995 -0.570449
upperback 0.463515 1.34656 -0.514638
thorax -0.0611922 0.669625 -0.220165
lowerneck -10.827 4.73739 -5.03045
upperneck 28.2099 2.76964 11.3176
head 10.4753 1.31872 5.15943
rclavicle 2.7072e-014 -3.77691e-015
rhumerus -92.9468 36.9907 -124.708
rradius 89.9803
rwrist 31.6162
rhand -46.1265 -3.45978
rfingers 7.12502
rthumb -18.8674 -32.5647
lclavicle 2.7072e-014 -3.77691e-015
lhumerus -84.7773 -46.2403 116.515
lradius 80.9159
lwrist -26.3758
lhand -40.52 -2.04017
lfingers 7.12502
lthumb -13.469 27.5043
rfemur 138.415 387.516 -173.083
rtibia 63.4019
rfoot 51.7302 -76.4719
rtoes 5.4333
lfemur -18.9532 -10.5454 -26.4651
ltibia 32.5554
lfoot -13.2514 -8.19933
ltoes -4.9515
278
root 10.6668 18.0261 -10.7197 -178.191 -4.96838 -180.591
lowerback 0.979035 0.795835 -0.424018
upperback 0.392535 1.04994 -0.475892
thorax -0.145703 0.522264 -0.260597
lowerneck -10.8289 4.84941 -5.10391
upperneck 28.278 3.10986 10.8116
head 10.4772 1.41604 5.02575
rclavicle -7.86442e-015 -1.39149e-015
rhumerus -92.6306 36.8669 -124.475
rradius 90.0845
rwrist 31.8462
rhand -46.0122 -3.27229
rfingers 7.12502
rthumb -18.7575 -32.3879
lclavicle -7.86442e-015 -1.39149e-015
lhumerus -85.2283 -45.997 116.652
lradius 81.1104
lwrist -26.0691
lhand -40.3809 -2.11908
lfingers 7.12502
lthumb -13.335 27.4342
rfemur 140.165 387.214 -173.09
rtibia 63.4695
rfoot 48.3758 -76.4578
rtoes 1.65892
lfemur -17.6307 -10.2089 -27.0733
ltibia 31.2963
lfoot -13.2568 -8.55919
ltoes -5.05112
279
root 10.6281 18.0442 -10.8578 -178.137 -5.01038 -181.162
lowerback 0.997143 0.626026 -0.389991
upperback 0.321366 0.823157 -0.541609
thorax -0.227518 0.409041 -0.345141
lowerneck -10.8563 4.93466 -5.29192
upperneck 28.4034 3.34938 10.5454
head 10.5065 1.47546 4.99279
rclavicle -2.14163e-014 -1.2424e-015
rhumerus -92.1428 36.6414 -124.066
rradius 90.2736
rwrist 32.2039
rhand -45.9247 -3.06311
rfingers 7.12502
rthumb -18.6732 -32.1868
lclavicle -2.14163e-014 -1.2424e-015
lhumerus -85.5254 -45.8655 116.692
lradius 81.1504
lwrist -25.8823
lhand -40.4211 -2.23715
lfingers 7.12502
lthumb -13.3737 27.3136
rfemur 142.203 387.21 -173.089
rtibia 63.3069
rfoot 44.4174 -76.4252
rtoes -1.06527
lfemur -16.4681 -9.83517 -27.8642
ltibia 30.1838
lfoot -13.2507 -8.97661
ltoes -5.07836
280
root 10.5946 18.0608 -10.9978 -178.255 -5.13409 -181.329
lowerback 1.13442 0.479976 -0.0416192
upperback 0.290442 0.632929 -0.470767
thorax -0.33366 0.314446 -0.467087
lowerneck -10.7416 4.9454 -5.35945
upperneck 28.3369 3.55325 10.0288
head 10.4527 1.50948 4.83002
rclavicle -5.27401e-015 4.96962e-017
rhumerus -91.4473 36.196 -123.35
rradius 90.3226
rwrist 32.7583
rhand -45.8215 -2.59692
rfingers 7.12502
rthumb -18.574 -31.7302
lclavicle -5.27401e-015 4.96962e-017
lhumerus -85.916 -45.8975 116.911
lradius 81.2593
lwrist -25.7156
lhand -40.4623 -2.12871
lfingers 7.12502
lthumb -13.4134 27.4195
rfemur 144.4 387.24 -172.558
rtibia 62.7495
rfoot 39.0485 -76.4703
rtoes -4.04294
lfemur -15.2419 -9.60018 -28.1988
ltibia 29.234
lfoot -13.4246 -9.34911
ltoes -4.92683
281
root 10.5619 18.0625 -11.145 -178.337 -5.07947 -181.944
lowerback 1.18687 0.318635 -0.265065
upperback 0.271193 0.414211 -0.48635
thorax -0.385916 0.20498 -0.355173
lowerneck -10.6866 5.02357 -5.43793
upperneck 28.3342 3.82076 9.59439
head 10.4266 1.57759 4.71101
rclavicle -2.28602e-015 -3.97569e-016
rhumerus -91.0513 35.9975 -122.923
rradius 90.6659
rwrist 32.5314
rhand -45.2593 -1.99226
rfingers 7.12502
rthumb -18.0332 -31.1763
lclavicle -2.28602e-015 -3.97569e-016
lhumerus -86.2704 -45.6542 117.005
lradius 81.4805
lwrist -25.4246
lhand -40.574 -2.09516
lfingers 7.12502
lthumb -13.521 27.4459
rfemur 146.842 387.425 -172.297
rtibia 61.9298
rfoot 34.769 -76.329
rtoes -4.24817
lfemur -14.0547 -9.47403 -29.0249
ltibia 28.4262
lfoot -13.6364 -9.41556
ltoes -4.54886
282
root 10.5211 18.0615 -11.2976 -178.456 -4.77962 -182.239
lowerback 1.10789 0.271915 -0.0218815
upperback 0.34949 0.355851 -0.443481
thorax -0.260603 0.175897 -0.446041
lowerneck -10.8087 5.06655 -5.72077
upperneck 28.3641 4.04618 9.34773
head 10.44 1.6319 4.70004
rclavicle 8.69683e-016 3.77691e-015
rhumerus -90.525 35.796 -122.294
rradius 90.8487
rwrist 32.8834
rhand -45.0423 -1.95507
rfingers 7.12502
rthumb -17.8243 -31.1582
lclavicle 8.69683e-016 3.77691e-015
lhumerus -86.4415 -45.7042 117.096
lradius 81.5516
lwrist -25.2577
lhand -40.7212 -1.98558
lfingers 7.12502
lthumb -13.663 27.546
rfemur 149.569 387.485 -171.507
rtibia 60.8066
rfoot 30.254 -76.1557
rtoes -5.26072
lfemur -12.9489 -8.97961 -29.5336
ltibia 27.7735
lfoot -13.8045 -9.79986
ltoes -4.50122
283
root 10.4859 18.0499 -11.4491 -178.566 -4.4942 -182.708
lowerback 1.11409 0.228017 0.0185934
upperback 0.346342 0.297217 -0.493392
thorax -0.267266 0.146433 -0.519058
lowerneck -10.8371 5.14008 -5.83029
upperneck 28.4326 4.266 9.05001
head 10.4574 1.68677 4.63757
rclavicle 2.13694e-015 -2.78299e-015
rhumerus -90.1496 35.4788 -121.861
rradius 90.9699
rwrist 33.3395
rhand -44.8847 -2.109
rfingers 7.12502
rthumb -17.6727 -31.3259
lclavicle 2.13694e-015 -2.78299e-015
lhumerus -86.7901 -45.6395 117.076
lradius 81.2902
lwrist -27.2087
lhand -41.7098 -0.536443
lfingers 7.12502
lthumb -14.6155 28.9285
rfemur 152.43 387.675 -170.796
rtibia 59.4769
rfoot 25.4917 -76.1413
rtoes -4.04546
lfemur -11.8999 -8.75851 -30.222
ltibia 27.2331
lfoot -14.2987 -9.79793
ltoes -4.64929
284
root 10.4573 18.0325 -11.6012 -178.645 -4.1969 -183.187
lowerback 1.08362 0.207218 0.020745
upperback 0.322015 0.26828 -0.606781
thorax -0.274792 0.131591 -0.635837
lowerneck -10.6623 5.19998 -5.73649
upperneck 28.3278 4.41618 8.75661
head 10.3844 1.73259 4.51903
rclavicle -6.06293e-015 9.14409e-015
rhumerus -89.7707 35.0125 -121.413
rradius 91.1182
rwrist 33.5623
rhand -44.412 -1.18741
rfingers 7.12502
rthumb -17.2178 -30.4446
lclavicle -6.06293e-015 9.14409e-015
lhumerus -87.2621 -45.7623 117.258
lradius 81.4298
lwrist -26.6729
lhand -41.7775 -0.334414
lfingers 7.12502
lthumb -14.6808 29.1258
rfemur 155.451 387.916 -169.894
rtibia 57.9878
rfoot 21.4102 -75.8598
rtoes -1.84083
lfemur -10.9315 -7.97255 -30.8952
ltibia 26.765
lfoot -14.7573 -10.1513
ltoes -4.12479
